<svg width="450" height="272" viewBox="0 0 450 272" fill="none" xmlns="http://www.w3.org/2000/svg">
<g clip-path="url(#clip0)">
<g filter="url(#filter0_d)">
<path d="M259.738 218.345C258.687 218.345 257.661 218.656 256.787 219.24C255.914 219.824 255.233 220.654 254.831 221.624C254.429 222.595 254.324 223.663 254.529 224.694C254.734 225.724 255.239 226.671 255.982 227.414C256.725 228.157 257.671 228.663 258.702 228.868C259.732 229.072 260.8 228.967 261.771 228.565C262.741 228.163 263.571 227.482 264.154 226.609C264.738 225.735 265.049 224.708 265.049 223.657C265.049 222.248 264.49 220.897 263.494 219.901C262.498 218.904 261.147 218.345 259.738 218.345ZM259.738 226.926C259.091 226.926 258.46 226.735 257.922 226.375C257.384 226.016 256.965 225.506 256.718 224.908C256.471 224.311 256.406 223.654 256.532 223.019C256.658 222.385 256.97 221.803 257.427 221.345C257.884 220.888 258.466 220.577 259.1 220.451C259.734 220.325 260.392 220.389 260.989 220.637C261.586 220.884 262.097 221.303 262.456 221.841C262.815 222.379 263.007 223.011 263.007 223.657V223.657C263.007 224.524 262.662 225.356 262.049 225.969C261.436 226.582 260.605 226.926 259.738 226.926Z" fill="#343434"/>
<path d="M239.309 214.258H259.738V234.481C259.738 235.187 259.457 235.864 258.958 236.363C258.459 236.862 257.782 237.143 257.077 237.143H241.97C241.264 237.143 240.587 236.862 240.088 236.363C239.589 235.864 239.309 235.187 239.309 234.481V214.258Z" fill="#343434"/>
</g>
<path d="M307.47 237.605H0.414324C0.300452 237.593 0.1952 237.539 0.118741 237.453C0.0422824 237.368 0 237.258 0 237.143C0 237.028 0.0422824 236.918 0.118741 236.833C0.1952 236.747 0.300452 236.693 0.414324 236.681H307.47C307.584 236.693 307.689 236.747 307.765 236.833C307.842 236.918 307.884 237.028 307.884 237.143C307.884 237.258 307.842 237.368 307.765 237.453C307.689 237.539 307.584 237.593 307.47 237.605Z" fill="#5E35CF"/>
<path d="M401.262 97.597H285.745C285.132 97.5963 284.544 97.3525 284.111 96.9191C283.678 96.4857 283.434 95.8981 283.433 95.2852V73.5085H284.358V95.2852C284.358 95.653 284.505 96.0055 284.765 96.2656C285.025 96.5256 285.377 96.6719 285.745 96.6723H401.262C401.63 96.6719 401.982 96.5256 402.242 96.2656C402.502 96.0055 402.649 95.653 402.649 95.2852V73.3563H403.573V95.2852C403.573 95.8981 403.329 96.4857 402.896 96.9191C402.462 97.3525 401.875 97.5963 401.262 97.597Z" fill="#343434"/>
<path d="M443.138 73.0461H171.685V73.9708H443.138V73.0461Z" fill="#343434"/>
<path d="M171.705 81.3896C176.096 81.3896 179.657 77.8288 179.657 73.4363C179.657 69.0437 176.096 65.4829 171.705 65.4829C167.313 65.4829 163.753 69.0437 163.753 73.4363C163.753 77.8288 167.313 81.3896 171.705 81.3896Z" fill="#88B178"/>
<path d="M252.511 81.3896C256.903 81.3896 260.463 77.8288 260.463 73.4363C260.463 69.0437 256.903 65.4829 252.511 65.4829C248.12 65.4829 244.559 69.0437 244.559 73.4363C244.559 77.8288 248.12 81.3896 252.511 81.3896Z" fill="#88B178"/>
<path d="M307.351 104.767C311.743 104.767 315.303 101.206 315.303 96.8132C315.303 92.4207 311.743 88.8599 307.351 88.8599C302.959 88.8599 299.399 92.4207 299.399 96.8132C299.399 101.206 302.959 104.767 307.351 104.767Z" fill="#C1DEB6"/>
<path d="M349.041 104.767C353.433 104.767 356.993 101.206 356.993 96.8132C356.993 92.4207 353.433 88.8599 349.041 88.8599C344.65 88.8599 341.09 92.4207 341.09 96.8132C341.09 101.206 344.65 104.767 349.041 104.767Z" fill="#C1B1ED"/>
<path d="M328.839 81.3896C333.231 81.3896 336.791 77.8288 336.791 73.4363C336.791 69.0437 333.231 65.4829 328.839 65.4829C324.447 65.4829 320.887 69.0437 320.887 73.4363C320.887 77.8288 324.447 81.3896 328.839 81.3896Z" fill="#88B178"/>
<path d="M442.048 81.3896C446.44 81.3896 450 77.8288 450 73.4363C450 69.0437 446.44 65.4829 442.048 65.4829C437.656 65.4829 434.096 69.0437 434.096 73.4363C434.096 77.8288 437.656 81.3896 442.048 81.3896Z" fill="#E8A5B9"/>
<path d="M403.111 81.3896C407.503 81.3896 411.063 77.8288 411.063 73.4363C411.063 69.0437 407.503 65.4829 403.111 65.4829C398.719 65.4829 395.159 69.0437 395.159 73.4363C395.159 77.8288 398.719 81.3896 403.111 81.3896Z" fill="#5E35CF"/>
<path d="M196.363 73.9709C196.241 73.9709 196.123 73.9221 196.036 73.8354C195.95 73.7487 195.901 73.6311 195.901 73.5085V50.6858C195.902 50.0729 196.145 49.4853 196.579 49.052C197.012 48.6186 197.599 48.3748 198.212 48.3741H214.241C214.364 48.3741 214.481 48.4228 214.568 48.5095C214.655 48.5962 214.704 48.7138 214.704 48.8364C214.704 48.9591 214.655 49.0767 214.568 49.1634C214.481 49.2501 214.364 49.2988 214.241 49.2988H198.212C197.845 49.2992 197.492 49.4455 197.232 49.7055C196.972 49.9655 196.826 50.3181 196.825 50.6858V73.5085C196.825 73.6311 196.777 73.7487 196.69 73.8354C196.603 73.9221 196.486 73.9709 196.363 73.9709Z" fill="#343434"/>
<path d="M228.722 48.6636C228.722 52.504 225.61 55.6169 221.771 55.6169C217.931 55.6169 214.819 52.504 214.819 48.6636C214.819 44.8232 217.931 41.7102 221.771 41.7102C225.61 41.7102 228.722 44.8232 228.722 48.6636Z" stroke="#343434" stroke-width="2"/>
<path d="M374.336 73.5085H373.412V50.6858C373.413 50.0729 373.656 49.4853 374.09 49.052C374.523 48.6186 375.11 48.3748 375.723 48.3741H391.752V49.2988H375.723C375.356 49.2992 375.003 49.4455 374.743 49.7055C374.483 49.9655 374.337 50.3181 374.336 50.6858V73.5085Z" fill="#343434"/>
<path d="M406.233 48.6636C406.233 52.504 403.121 55.6169 399.281 55.6169C395.442 55.6169 392.329 52.504 392.329 48.6636C392.329 44.8232 395.442 41.7102 399.281 41.7102C403.121 41.7102 406.233 44.8232 406.233 48.6636Z" stroke="#343434" stroke-width="2"/>
<path d="M254.991 223.5L254.994 223.498L254.997 223.642L254.991 223.5ZM254.991 223.5L254.991 223.498M254.991 223.5L254.991 223.498M254.991 223.498L254.991 223.495L254.997 223.352H255.005L254.991 223.498ZM252.644 223.928L252.589 223.568L252.512 223.265C252.095 221.625 251.1 220.188 249.707 219.215C249.609 219.146 249.509 219.081 249.408 219.017C250.618 220.072 251.481 221.465 251.883 223.016L251.971 223.354H251.972L251.975 223.369L252.046 223.642H252.017L252.037 223.778C252.161 224.586 252.161 225.408 252.037 226.215L252.017 226.352H252.043L251.978 226.603L251.972 226.64H251.969L251.881 226.977C251.479 228.528 250.616 229.92 249.407 230.975C249.508 230.912 249.607 230.847 249.704 230.778C251.098 229.806 252.093 228.368 252.51 226.729L252.592 226.405L252.644 226.064C252.752 225.356 252.752 224.636 252.644 223.928Z" fill="#F5F5F5" stroke="#F5F5F5"/>
<g filter="url(#filter1_d)">
<path d="M41.3314 228.872L39.4324 238.263L74.7464 250.06L77.5496 236.198L41.3314 228.872Z" fill="#FFB6B6"/>
<path d="M44.8816 227.096L41.1414 245.592L41.1412 245.593C40.5088 248.718 38.6608 251.465 36.0037 253.228C33.3467 254.991 30.0982 255.627 26.9728 254.995L26.5898 254.917L32.7139 224.635L44.8816 227.096Z" fill="#381E80"/>
<path d="M89.1512 232.462C123.25 232.462 150.892 224.728 150.892 215.189C150.892 205.649 123.25 197.916 89.1512 197.916C55.0528 197.916 27.4106 205.649 27.4106 215.189C27.4106 224.728 55.0528 232.462 89.1512 232.462Z" fill="#E7D36F"/>
<path d="M132.92 137.197C132.095 132.235 131.245 127.179 128.94 122.709C127.424 119.781 125.019 116.992 121.777 116.413C121.138 116.356 120.51 116.21 119.912 115.981C118.961 115.523 106.194 108.234 104.165 106.964C102.423 105.874 99.6726 103.856 98.2858 103.856C96.8907 103.825 91.541 105.071 70.6606 103.438C67.1483 104.848 63.7472 106.521 60.4859 108.442C60.4187 108.397 38.814 120.001 38.0023 119.971C36.4652 119.906 35.0364 120.89 34.1552 122.13C33.2742 123.369 32.8609 124.904 32.4282 126.387C37.1471 136.898 41.4646 147.422 46.1839 157.933C46.4048 158.329 46.5222 158.774 46.5251 159.227C46.4303 159.698 46.2295 160.141 45.9381 160.522C43.6238 164.24 43.6974 168.917 43.9502 173.287C44.2032 177.657 44.516 182.273 42.5634 186.19C42.0322 187.266 41.3416 188.25 40.8364 189.325C39.6534 191.761 39.2259 199.551 39.9168 202.168L126.484 204.649C124.623 199.531 132.92 137.197 132.92 137.197Z" fill="#EEE09B"/>
<path d="M24.9455 158.399C24.7728 159.648 24.7554 160.915 24.8937 162.169L26.1345 179.99C26.2509 181.67 26.3656 183.346 26.5232 185.021C26.8209 188.273 27.2656 191.499 27.8176 194.72C27.83 195.177 28.0234 195.611 28.3552 195.926C28.6871 196.241 29.1303 196.411 29.5876 196.4C35.0493 197.556 40.6922 197.509 46.2662 197.195C54.772 196.72 76.5328 195.821 77.8622 194.094C79.1917 192.367 78.417 189.573 76.6835 188.176C74.95 186.779 46.2334 183.374 46.2334 183.374C46.514 181.15 47.3604 179.056 48.1634 176.944C49.6056 173.199 50.9527 169.331 50.9786 165.319C51.0045 161.307 49.4933 157.089 46.2075 154.791C43.5046 152.904 40.0247 152.554 36.731 152.632C34.3346 152.701 30.1941 152.126 28.0053 153.064C26.2731 153.827 25.2691 156.702 24.9455 158.399Z" fill="#FBBEBE"/>
<path d="M133.074 198.685C134.511 198.136 136.096 198.335 137.637 198.542C142.598 199.22 147.632 199.915 152.231 201.898C154.389 202.822 156.445 204.057 157.904 205.874C159.198 207.511 159.955 209.514 160.672 211.488L162.33 216.031C163.035 217.737 163.521 219.526 163.776 221.355C164.294 226.792 160.577 231.918 155.901 234.742C151.225 237.567 145.72 238.572 140.358 239.626C134.995 240.68 129.611 241.845 124.271 243.081C121.78 243.727 119.252 244.225 116.702 244.57C110.986 245.218 105.01 244.264 99.5788 246.155C97.42 246.911 95.3 248.034 93.0608 248.556C91.5723 248.869 90.0674 249.099 88.5532 249.243L78.2733 250.417C76.1829 250.697 74.0784 250.858 71.9698 250.901C67.4798 250.901 63.0628 249.837 58.7027 248.774C58.2394 248.692 57.7984 248.514 57.4084 248.251C56.7177 247.707 56.5666 246.744 56.4672 245.872C56.0268 242.012 55.6416 238.147 55.3115 234.278C55.208 233.021 55.1303 231.661 55.8168 230.603C56.6803 229.309 58.3643 228.902 59.9014 228.651C66.419 227.585 73.0216 227.126 79.624 227.282C82.1323 224.773 86.2687 224.76 89.5545 223.396C90.7632 222.84 91.9331 222.204 93.0562 221.491C98.9334 218.061 105.501 215.986 112.282 215.415C113.61 215.375 114.929 215.187 116.215 214.854C118.758 214.064 121.077 211.913 123.689 212.44C124.012 211.546 124.237 210.35 124.983 209.737C125.353 209.421 125.812 209.21 126.153 208.873C126.874 208.143 126.939 206.995 126.831 205.976C126.723 204.957 126.481 203.912 126.744 202.918C126.854 202.542 127.015 202.183 127.224 201.851C128.514 199.617 130.47 198.469 133.074 198.685Z" fill="#EEE09B"/>
<path d="M32.1786 126.707C31.758 127.148 31.4319 127.67 31.2203 128.241C27.7303 136.107 25.6689 144.533 25.1327 153.122C25.1421 153.541 25.0456 153.956 24.8521 154.327C24.6613 154.574 24.4489 154.804 24.2174 155.014C24.0156 155.253 23.8628 155.53 23.7679 155.828C23.673 156.127 23.6378 156.441 23.6643 156.753C23.6908 157.064 23.7784 157.368 23.9222 157.646C24.066 157.924 24.2632 158.171 24.5024 158.373C24.5417 158.406 24.5819 158.438 24.6232 158.469C25.3356 157.128 27.0409 156.689 28.5567 156.573C35.8143 155.999 42.9036 159.376 50.183 159.121C49.6694 157.346 48.9307 155.64 48.5119 153.844C46.6596 145.868 51.2795 137.184 48.4471 129.502C47.8813 127.965 46.936 126.453 45.4466 125.779C44.8298 125.531 44.1844 125.36 43.5254 125.271C41.686 124.938 38.0244 123.518 36.246 124.088C35.5896 124.299 35.3308 124.917 34.7867 125.29C33.9601 125.818 32.8636 126.012 32.1786 126.707Z" fill="#EEE09B"/>
<path d="M132.972 153.064C130.783 152.126 126.642 152.701 124.246 152.632C120.952 152.554 117.472 152.904 114.77 154.791C111.484 157.089 109.973 161.307 109.999 165.319C110.024 169.331 111.371 173.199 112.814 176.944C113.617 179.056 114.463 181.15 114.744 183.374C114.744 183.374 86.0272 186.779 84.2937 188.176C82.5602 189.573 81.7854 192.367 83.1149 194.094C84.4444 195.821 125.928 197.556 131.39 196.4C131.847 196.411 132.29 196.241 132.622 195.926C132.954 195.611 133.147 195.177 133.16 194.72C133.711 191.499 134.156 188.273 134.454 185.021C134.612 183.346 134.726 181.67 134.843 179.99L136.083 162.169C136.222 160.915 136.204 159.648 136.032 158.399C135.708 156.702 134.704 153.827 132.972 153.064Z" fill="#FBBEBE"/>
<path d="M126.19 125.29C125.646 124.917 125.388 124.299 124.731 124.088C122.953 123.518 119.291 124.938 117.452 125.271C116.793 125.36 116.147 125.531 115.531 125.779C114.041 126.453 113.096 127.965 112.53 129.502C109.698 137.184 114.318 145.868 112.465 153.844C112.046 155.64 111.308 157.346 110.794 159.121C118.074 159.376 125.163 155.999 132.42 156.573C133.936 156.689 135.642 157.128 136.354 158.469C136.395 158.438 136.435 158.406 136.475 158.373C136.714 158.171 136.911 157.924 137.055 157.646C137.199 157.368 137.286 157.064 137.313 156.753C137.339 156.441 137.304 156.127 137.209 155.828C137.114 155.53 136.962 155.253 136.76 155.014C136.528 154.804 136.316 154.574 136.125 154.327C135.932 153.956 135.835 153.541 135.844 153.122C135.308 144.533 133.247 136.107 129.757 128.241C129.545 127.67 129.219 127.148 128.799 126.707C128.114 126.012 127.017 125.818 126.19 125.29Z" fill="#EEE09B"/>
<path d="M138.33 242.278L137.069 251.776L99.8384 251.427L101.701 237.409L138.33 242.278Z" fill="#FFB6B6"/>
<path d="M147.858 241.079L143.788 271.706L143.401 271.654C140.24 271.234 137.375 269.575 135.437 267.042C133.499 264.51 132.646 261.311 133.066 258.15L133.066 258.149L135.552 239.443L147.858 241.079Z" fill="#381E80"/>
<path d="M50.7428 203.491C50.7428 203.923 50.0651 203.491 50.0032 203.029C49.5284 199.535 46.7562 196.655 43.5268 195.256C40.2974 193.857 36.6186 193.783 33.1216 194.116C27.8328 194.617 21.8959 196.642 19.9617 201.586C19.5041 202.742 15.217 213.034 15.6354 215.349C16.7624 221.524 20.9847 226.805 26.1011 230.463C31.2175 234.121 37.1956 236.306 43.1588 238.277C58.925 243.477 75.1009 247.342 91.5153 249.828C94.1747 250.23 96.8605 250.601 99.4076 251.456C101.687 252.22 103.82 253.365 106.048 254.263C111.229 256.344 116.803 257.087 122.325 257.817C123.266 257.938 124.346 258.024 125.041 257.385C125.939 256.553 125.642 255.101 125.386 253.905C124.449 249.357 125.235 244.622 127.593 240.622C128.517 239.067 129.719 237.474 129.544 235.675C129.337 233.576 127.247 232.09 125.166 231.753C123.085 231.416 120.97 231.913 118.879 232.185C118.163 232.35 117.412 232.275 116.742 231.974C116.432 231.764 116.15 231.514 115.905 231.231C114.465 229.842 112.623 228.945 110.642 228.668C108.661 228.391 106.643 228.749 104.878 229.689C104.105 230.121 102.936 229.158 102.132 228.796L93.0518 224.685C82.6208 219.965 72.1379 215.223 61.1022 212.235C60.2216 212.062 59.3848 211.714 58.6411 211.211C58.0928 210.779 57.6999 210.194 57.1947 209.713C56.0935 208.672 54.5597 208.257 53.2399 207.519C51.9202 206.78 50.4405 204.972 50.7428 203.491Z" fill="#EEE09B"/>
<path d="M74.2481 197.251C77.8224 197.251 80.7199 194.353 80.7199 190.778C80.7199 187.203 77.8224 184.305 74.2481 184.305C70.6739 184.305 67.7764 187.203 67.7764 190.778C67.7764 194.353 70.6739 197.251 74.2481 197.251Z" fill="#FBBEBE"/>
<path d="M88.5782 197.251C92.1524 197.251 95.0499 194.353 95.0499 190.778C95.0499 187.203 92.1524 184.305 88.5782 184.305C85.0039 184.305 82.1064 187.203 82.1064 190.778C82.1064 194.353 85.0039 197.251 88.5782 197.251Z" fill="#FBBEBE"/>
<path d="M128.527 205.364H39.6147C38.5767 205.363 37.5815 204.95 36.8474 204.216C36.1134 203.481 35.7005 202.486 35.6992 201.448V147.498C35.7005 146.46 36.1134 145.464 36.8474 144.73C37.5815 143.996 38.5767 143.583 39.6147 143.582H128.527C129.565 143.583 130.56 143.996 131.294 144.73C132.028 145.464 132.441 146.46 132.442 147.498V201.448C132.441 202.486 132.028 203.481 131.294 204.216C130.56 204.95 129.565 205.363 128.527 205.364Z" fill="white"/>
<path d="M83.8552 177.064C85.2859 177.064 86.4457 175.904 86.4457 174.473C86.4457 173.042 85.2859 171.882 83.8552 171.882C82.4245 171.882 81.2646 173.042 81.2646 174.473C81.2646 175.904 82.4245 177.064 83.8552 177.064Z" fill="white"/>
<path d="M81.3496 108.754C94.5925 108.754 105.328 98.017 105.328 84.7718C105.328 71.5266 94.5925 60.7892 81.3496 60.7892C68.1068 60.7892 57.3713 71.5266 57.3713 84.7718C57.3713 98.017 68.1068 108.754 81.3496 108.754Z" fill="#FEB8B8"/>
<path d="M103.745 64.0815C100.161 58.2591 94.5489 53.9687 87.9909 52.0364L85.0472 54.1849V51.3951C83.4722 51.154 81.8781 51.0611 80.2858 51.1177L77.7461 53.416V51.3086C73.9858 51.776 70.3632 53.0175 67.1065 54.955C63.8499 56.8924 61.03 59.4837 58.8245 62.5655C53.3092 70.5179 52.3782 81.5815 57.8029 89.5977C59.2919 85.0205 61.0994 80.7257 62.5888 76.1489C63.7592 76.3084 64.9454 76.3142 66.1173 76.166L67.9289 71.9378L68.4351 75.9871C74.0507 75.4979 82.3799 74.4234 87.7033 73.439L87.1856 70.3325L90.2828 72.9138C91.9137 72.5384 92.8821 72.1976 92.8022 71.9373C96.7615 78.3215 101.607 82.3989 105.566 88.7831C107.07 79.7811 108.8 72.2961 103.745 64.0815Z" fill="#2F2E41"/>
</g>
</g>
<defs>
<filter id="filter0_d" x="239.309" y="214.258" width="26.7406" height="23.8845" filterUnits="userSpaceOnUse" color-interpolation-filters="sRGB">
<feFlood flood-opacity="0" result="BackgroundImageFix"/>
<feColorMatrix in="SourceAlpha" type="matrix" values="0 0 0 0 0 0 0 0 0 0 0 0 0 0 0 0 0 0 127 0"/>
<feOffset dx="1" dy="1"/>
<feColorMatrix type="matrix" values="0 0 0 0 0.847059 0 0 0 0 0.180392 0 0 0 0 0.376471 0 0 0 1 0"/>
<feBlend mode="normal" in2="BackgroundImageFix" result="effect1_dropShadow"/>
<feBlend mode="normal" in="SourceGraphic" in2="effect1_dropShadow" result="shape"/>
</filter>
<filter id="filter1_d" x="15.6067" y="51.1016" width="149.218" height="221.604" filterUnits="userSpaceOnUse" color-interpolation-filters="sRGB">
<feFlood flood-opacity="0" result="BackgroundImageFix"/>
<feColorMatrix in="SourceAlpha" type="matrix" values="0 0 0 0 0 0 0 0 0 0 0 0 0 0 0 0 0 0 127 0"/>
<feOffset dx="1" dy="1"/>
<feColorMatrix type="matrix" values="0 0 0 0 0.847059 0 0 0 0 0.180392 0 0 0 0 0.376471 0 0 0 1 0"/>
<feBlend mode="normal" in2="BackgroundImageFix" result="effect1_dropShadow"/>
<feBlend mode="normal" in="SourceGraphic" in2="effect1_dropShadow" result="shape"/>
</filter>
<clipPath id="clip0">
<rect width="450" height="271.411" fill="white" transform="translate(0 0.294312)"/>
</clipPath>
</defs>
</svg>
