<svg width="28" height="34" viewBox="0 0 28 34" fill="none" xmlns="http://www.w3.org/2000/svg">
<path d="M17.7334 0H4.1334C2.2464 0 0.733398 1.53 0.733398 3.4V30.6C0.733398 32.487 2.2464 34 4.1334 34H24.5334C26.4204 34 27.9334 32.487 27.9334 30.6V10.2L17.7334 0ZM24.5334 30.6H4.1334V3.4H16.0334V11.9H24.5334V30.6ZM10.1514 23.205L13.7044 26.758L11.5284 28.9L5.8334 23.205L11.5284 17.51L13.7044 19.652L10.1514 23.205ZM22.8334 23.205L17.1384 28.9L14.9794 26.758L18.5324 23.205L14.9794 19.652L17.1384 17.51L22.8334 23.205Z" fill="#343434"/>
</svg>
