<?xml version="1.0" encoding="utf-8"?>
<!-- Generator: Adobe Illustrator 23.1.0, SVG Export Plug-In . SVG Version: 6.00 Build 0)  -->
<svg version="1.1" id="Livello_1" xmlns="http://www.w3.org/2000/svg" xmlns:xlink="http://www.w3.org/1999/xlink" x="0px" y="0px"
	 viewBox="0 0 460.4 100.1" style="enable-background:new 0 0 460.4 100.1;" xml:space="preserve">
<g>
	<path d="M0.3,0.3C0.1,0.3,0,0.5,0,0.7S0.1,1,0.3,1.1c11.3,1.1,22,6.2,30,14.2c9.3,9.3,14.4,21.7,14.4,34.8
		c0,13.2-5.1,25.5-14.4,34.8c-8,8-18.7,13.1-30,14.2c-0.2,0-0.3,0.2-0.3,0.4c0,0.2,0.1,0.3,0.3,0.4c15,1.5,29.7-3.8,40.3-14.4
		c19.5-19.5,19.5-51.2,0-70.7C29.9,4.1,15.2-1.2,0.3,0.3z"/>
	<path d="M182.4,59.7c0,3.4-0.4,6.7-1.2,9.9c-0.8,3.2-2.1,6-3.8,8.5c-1.8,2.5-4.1,4.5-7,6s-6.5,2.3-10.8,2.3
		c-4.2,0-7.8-0.8-10.8-2.3c-2.9-1.5-5.3-3.5-7-6c-1.8-2.5-3.1-5.3-3.8-8.5s-1.2-6.5-1.2-9.9V8.2h-8.5v52.4c0,3.5,0.5,7.1,1.4,11
		s2.5,7.5,4.9,10.8s5.6,6,9.6,8.2s9.2,3.2,15.5,3.2c6.2,0,11.4-1.1,15.4-3.2c4.1-2.2,7.3-4.9,9.6-8.2c2.4-3.3,4-6.9,4.9-10.8
		s1.4-7.6,1.4-11V8.2h-8.5v51.5H182.4z"/>
	<path d="M312,52.8c-2.4-1.8-5-3.2-8-4.3c-2.9-1.1-5.9-2.1-8.8-3.1c-2.4-0.8-4.6-1.6-6.8-2.4c-2.2-0.8-4.1-1.8-5.8-3
		c-1.7-1.2-3-2.7-4.1-4.4c-1-1.7-1.5-3.9-1.5-6.6s0.5-5,1.6-7c1.1-2,2.5-3.6,4.2-4.9s3.7-2.3,5.8-2.9s4.2-0.9,6.3-0.9
		c4,0,7.4,0.8,10.3,2.3c2.8,1.5,5.2,3.6,7,6.1l6.7-5.4c-2.1-2.8-5.1-5.1-9.1-7.1s-8.9-3-14.5-3c-3.1,0-6.2,0.4-9.3,1.3
		s-6,2.2-8.6,4.1c-2.6,1.9-4.7,4.3-6.3,7.2c-1.6,2.9-2.4,6.4-2.4,10.4c0,3.8,0.7,7,2,9.6s3,4.8,5.1,6.6c2.1,1.8,4.5,3.2,7.2,4.3
		c2.7,1.1,5.4,2.1,8.2,3c2.7,0.9,5.2,1.7,7.7,2.6c2.4,0.9,4.6,2,6.5,3.3c1.9,1.3,3.4,2.9,4.5,4.8c1.1,1.9,1.7,4.4,1.7,7.3
		c0,2.7-0.6,5-1.7,7c-1.1,2-2.6,3.7-4.4,5.1s-3.8,2.4-6,3.1s-4.4,1-6.5,1c-4.4,0-8.2-1-11.5-3s-5.8-4.5-7.6-7.5l-7.3,5.4
		c1.5,2,3.2,3.9,5.2,5.4c2,1.6,4.1,2.9,6.4,3.9s4.7,1.8,7.2,2.3s5,0.8,7.6,0.8c3.3,0,6.6-0.5,9.9-1.4s6.2-2.4,8.7-4.4
		s4.6-4.5,6.2-7.5c1.6-3,2.4-6.6,2.4-10.8c0-4.2-0.7-7.6-2.2-10.3C316.3,56.8,314.4,54.6,312,52.8z"/>
	<polygon points="415.8,46.1 458,8.2 445.8,8.2 406,45.8 405.9,45.8 405.9,8.2 397.4,8.2 397.4,91.9 405.9,91.9 405.9,47.3 
		406,47.3 447.8,91.9 460.4,91.9 	"/>
</g>
</svg>
