<svg width="1118" height="901" viewBox="0 0 1118 901" fill="none" xmlns="http://www.w3.org/2000/svg">
<g opacity="0.05">
<path d="M123.742 693.667C117.882 690.529 114.036 684.438 114.036 677.423V511.295C114.036 504.281 117.882 498.19 123.742 495.052L268.415 413.095C271.345 410.88 275.008 409.773 278.853 409.773C282.699 409.773 286.362 410.88 289.292 413.095L433.965 495.052C439.825 498.19 443.67 504.281 443.67 511.295V677.423C443.67 684.438 439.825 690.529 433.965 693.667L289.292 775.624C286.362 777.839 282.699 778.946 278.853 778.946C275.008 778.946 271.345 777.839 268.415 775.624L123.742 693.667Z" fill="#F5F5F5"/>
<path d="M114.036 677.423C114.036 684.438 117.882 690.529 123.742 693.667L268.415 775.624C271.345 777.839 275.008 778.946 278.853 778.946C282.699 778.946 286.362 777.839 289.292 775.624L433.965 693.667C439.825 690.529 443.67 684.438 443.67 677.423V511.295C443.67 504.281 439.825 498.19 433.965 495.052L289.292 413.095C286.362 410.88 282.699 409.773 278.853 409.773C275.008 409.773 271.345 410.88 268.415 413.095L123.742 495.052C117.882 498.19 114.036 504.281 114.036 511.295V677.423ZM278.853 449.459L387.999 511.295L278.853 573.132L169.708 511.295L278.853 449.459ZM407.044 666.533L297.166 728.923V605.065L407.044 542.86V666.533Z" fill="#E1DAF6"/>
<path d="M114.036 677.423C114.036 684.438 117.882 690.529 123.742 693.667L268.415 775.624C271.345 777.839 275.008 778.946 278.853 778.946C282.699 778.946 286.362 777.839 289.292 775.624L433.965 693.667C439.825 690.529 443.67 684.438 443.67 677.423V511.295C443.67 504.281 439.825 498.19 433.965 495.052L289.292 413.095C286.362 410.88 282.699 409.773 278.853 409.773C275.008 409.773 271.345 410.88 268.415 413.095L123.742 495.052C117.882 498.19 114.036 504.281 114.036 511.295V677.423ZM278.853 449.459L387.999 511.295L278.853 573.132L169.708 511.295L278.853 449.459ZM407.044 666.533L297.166 728.923V605.065L407.044 542.86V666.533ZM150.662 666.533V542.86L260.54 605.065V728.923L150.662 666.533Z" fill="#381E80"/>
<path d="M692.349 787.393C684.554 783.219 679.439 775.117 679.439 765.787V544.812C679.439 535.482 684.554 527.38 692.349 523.206L884.785 414.192C888.682 411.246 893.554 409.773 898.67 409.773C903.785 409.773 908.657 411.246 912.554 414.192L1104.99 523.206C1112.78 527.38 1117.9 535.482 1117.9 544.812V765.787C1117.9 775.117 1112.78 783.219 1104.99 787.393L912.554 896.407C908.657 899.353 903.785 900.826 898.67 900.826C893.554 900.826 888.682 899.353 884.785 896.407L692.349 787.393Z" fill="#EEE09B"/>
<path d="M679.439 765.787C679.439 775.117 684.555 783.219 692.349 787.393L884.785 896.407C888.682 899.353 893.554 900.826 898.67 900.826C903.785 900.826 908.657 899.353 912.554 896.407L1104.99 787.393C1112.78 783.219 1117.9 775.117 1117.9 765.787V544.812C1117.9 535.482 1112.78 527.38 1104.99 523.206L912.554 414.192C908.657 411.246 903.785 409.773 898.67 409.773C893.554 409.773 888.682 411.246 884.785 414.192L692.349 523.206C684.555 527.38 679.439 535.482 679.439 544.812V765.787ZM898.67 462.561L1043.85 544.812L898.67 627.064L753.49 544.812L898.67 462.561ZM1069.18 751.301L923.029 834.289V669.54L1069.18 586.798V751.301Z" fill="#5E35CF"/>
<path d="M679.439 765.787C679.439 775.117 684.555 783.219 692.349 787.393L884.785 896.407C888.682 899.353 893.554 900.826 898.67 900.826C903.785 900.826 908.657 899.353 912.554 896.407L1104.99 787.393C1112.78 783.219 1117.9 775.117 1117.9 765.787V544.812C1117.9 535.482 1112.78 527.38 1104.99 523.206L912.554 414.192C908.657 411.246 903.785 409.773 898.67 409.773C893.554 409.773 888.682 411.246 884.785 414.192L692.349 523.206C684.555 527.38 679.439 535.482 679.439 544.812V765.787ZM898.67 462.561L1043.85 544.812L898.67 627.064L753.49 544.812L898.67 462.561ZM1069.18 751.301L923.029 834.289V669.54L1069.18 586.798V751.301ZM728.157 751.301V586.798L874.311 669.54V834.289L728.157 751.301Z" fill="#381E80"/>
<path d="M-7.33957 202.061C-14.3798 198.291 -18.9999 190.973 -18.9999 182.547V-17.034C-18.9999 -25.4607 -14.3798 -32.7787 -7.33957 -36.5486L166.466 -135.008C169.986 -137.669 174.386 -139 179.006 -139C183.626 -139 188.026 -137.669 191.546 -135.008L365.351 -36.5486C372.392 -32.7787 377.012 -25.4607 377.012 -17.034V182.547C377.012 190.973 372.392 198.291 365.351 202.061L191.546 300.521C188.026 303.182 183.626 304.513 179.006 304.513C174.386 304.513 169.986 303.182 166.466 300.521L-7.33957 202.061Z" fill="#A2CE91"/>
<path d="M-19 182.547C-19 190.973 -14.3798 198.291 -7.3396 202.061L166.466 300.521C169.986 303.182 174.386 304.513 179.006 304.513C183.626 304.513 188.026 303.182 191.546 300.521L365.351 202.061C372.392 198.291 377.012 190.973 377.012 182.547V-17.034C377.012 -25.4607 372.392 -32.7787 365.351 -36.5486L191.546 -135.008C188.026 -137.669 183.626 -139 179.006 -139C174.386 -139 169.986 -137.669 166.466 -135.008L-7.3396 -36.5486C-14.3798 -32.7787 -19 -25.4607 -19 -17.034V182.547ZM179.006 -91.3224L310.13 -17.034L179.006 57.2544L47.8821 -17.034L179.006 -91.3224ZM333.011 169.463L201.007 244.417V95.6182L333.011 20.8864V169.463Z" fill="#E7D36F"/>
<path d="M-19 182.547C-19 190.973 -14.3798 198.291 -7.3396 202.061L166.466 300.521C169.986 303.182 174.386 304.513 179.006 304.513C183.626 304.513 188.026 303.182 191.546 300.521L365.351 202.061C372.392 198.291 377.012 190.973 377.012 182.547V-17.034C377.012 -25.4607 372.392 -32.7787 365.351 -36.5486L191.546 -135.008C188.026 -137.669 183.626 -139 179.006 -139C174.386 -139 169.986 -137.669 166.466 -135.008L-7.3396 -36.5486C-14.3798 -32.7787 -19 -25.4607 -19 -17.034V182.547ZM179.006 -91.3224L310.13 -17.034L179.006 57.2544L47.8821 -17.034L179.006 -91.3224ZM333.011 169.463L201.007 244.417V95.6182L333.011 20.8864V169.463ZM25.0013 169.463V20.8864L157.005 95.6182V244.417L25.0013 169.463Z" fill="#381E80"/>
<path d="M589.105 242.35C583.407 239.299 579.667 233.376 579.667 226.556V65.0304C579.667 58.2104 583.407 52.2878 589.105 49.2368L729.769 -30.4492C732.618 -32.6028 736.179 -33.6797 739.919 -33.6797C743.658 -33.6797 747.219 -32.6028 750.068 -30.4492L890.733 49.2368C896.43 52.2878 900.17 58.2104 900.17 65.0304V226.556C900.17 233.376 896.43 239.299 890.733 242.35L750.068 322.036C747.219 324.189 743.658 325.266 739.919 325.266C736.179 325.266 732.618 324.189 729.769 322.036L589.105 242.35Z" fill="#A087E3"/>
<path d="M579.667 226.556C579.667 233.376 583.407 239.299 589.105 242.35L729.769 322.036C732.618 324.189 736.179 325.266 739.919 325.266C743.658 325.266 747.219 324.189 750.068 322.036L890.733 242.35C896.43 239.299 900.17 233.376 900.17 226.556V65.0304C900.17 58.2104 896.43 52.2878 890.733 49.2368L750.068 -30.4492C747.219 -32.6028 743.658 -33.6797 739.919 -33.6797C736.179 -33.6797 732.618 -32.6028 729.769 -30.4492L589.105 49.2368C583.407 52.2878 579.667 58.2104 579.667 65.0304V226.556ZM739.919 4.90699L846.04 65.0304L739.919 125.154L633.797 65.0304L739.919 4.90699ZM864.558 215.967L757.724 276.629V156.203L864.558 95.7203V215.967Z" fill="#E7D36F"/>
<path d="M579.667 226.556C579.667 233.376 583.407 239.299 589.105 242.35L729.769 322.036C732.618 324.189 736.179 325.266 739.919 325.266C743.658 325.266 747.219 324.189 750.068 322.036L890.733 242.35C896.43 239.299 900.17 233.376 900.17 226.556V65.0304C900.17 58.2104 896.43 52.2878 890.733 49.2368L750.068 -30.4492C747.219 -32.6028 743.658 -33.6797 739.919 -33.6797C736.179 -33.6797 732.618 -32.6028 729.769 -30.4492L589.105 49.2368C583.407 52.2878 579.667 58.2104 579.667 65.0304V226.556ZM739.919 4.90699L846.04 65.0304L739.919 125.154L633.797 65.0304L739.919 4.90699ZM864.558 215.967L757.724 276.629V156.203L864.558 95.7203V215.967ZM615.279 215.967V95.7203L722.113 156.203V276.629L615.279 215.967Z" fill="#381E80"/>
</g>
</svg>
