<svg width="28" height="34" viewBox="0 0 28 34" fill="none" xmlns="http://www.w3.org/2000/svg">
<path d="M17.7334 0H4.1334C3.23166 0 2.36686 0.358213 1.72924 0.995837C1.09161 1.63346 0.733398 2.49826 0.733398 3.4V30.6C0.733398 31.5017 1.09161 32.3665 1.72924 33.0042C2.36686 33.6418 3.23166 34 4.1334 34H24.5334C25.4351 34 26.2999 33.6418 26.9376 33.0042C27.5752 32.3665 27.9334 31.5017 27.9334 30.6V10.2L17.7334 0ZM24.5334 30.6H4.1334V3.4H16.0334V11.9H24.5334V30.6ZM15.7444 22.1C15.3434 20.9657 14.5543 20.0098 13.5166 19.401C12.4789 18.7923 11.2594 18.57 10.0737 18.7734C8.88791 18.9769 7.81226 19.593 7.03682 20.5128C6.26138 21.4326 5.83607 22.5969 5.83607 23.8C5.83607 25.0031 6.26138 26.1674 7.03682 27.0872C7.81226 28.007 8.88791 28.6231 10.0737 28.8266C11.2594 29.03 12.4789 28.8077 13.5166 28.199C14.5543 27.5902 15.3434 26.6343 15.7444 25.5H17.7334V28.9H21.1334V25.5H22.8334V22.1H15.7444ZM10.9334 25.5C10.5972 25.5 10.2685 25.4003 9.98893 25.2135C9.70936 25.0267 9.49147 24.7612 9.3628 24.4506C9.23413 24.1399 9.20047 23.7981 9.26606 23.4683C9.33166 23.1386 9.49357 22.8357 9.73132 22.5979C9.96907 22.3602 10.272 22.1983 10.6017 22.1327C10.9315 22.0671 11.2733 22.1007 11.584 22.2294C11.8946 22.3581 12.1601 22.576 12.3469 22.8555C12.5337 23.1351 12.6334 23.4638 12.6334 23.8C12.6334 24.2509 12.4543 24.6833 12.1355 25.0021C11.8167 25.3209 11.3843 25.5 10.9334 25.5Z" fill="#343434"/>
</svg>
