<?xml version="1.0" encoding="UTF-8"?>
<!-- Generator: Adobe Illustrator 23.0.0, SVG Export Plug-In . SVG Version: 6.00 Build 0)  -->
<svg xmlns="http://www.w3.org/2000/svg" xmlns:xlink="http://www.w3.org/1999/xlink" id="Layer_1" x="0px" y="0px" viewBox="0 0 1120 641" style="enable-background:new 0 0 1120 641;" xml:space="preserve">
<style type="text/css">
	.st0{clip-path:url(#SVGID_2_);}
	.st1{fill:#FFFFFF;}
	.st2{fill:#C4C4C4;filter:url(#Adobe_OpacityMaskFilter);}
	.st3{mask:url(#mask0_1_);}
	.st4{opacity:0.34;clip-path:url(#SVGID_4_);}
	.st5{fill:#444444;fill-opacity:0.41;}
	.st6{fill:#DDDDDD;fill-opacity:0.41;}
	.st7{fill-opacity:0.41;}
	.st8{fill:#666666;fill-opacity:0.41;}
	.st9{fill:#AAAAAA;fill-opacity:0.41;}
	.st10{fill:#999999;fill-opacity:0.41;}
	.st11{fill:#FFFFFF;fill-opacity:0.41;}
	.st12{fill:#222222;fill-opacity:0.41;}
	.st13{opacity:0.85;clip-path:url(#SVGID_2_);fill-rule:evenodd;clip-rule:evenodd;fill:#3B218C;}
</style>
<g>
	<defs>
		<rect id="SVGID_1_" width="1120" height="641"></rect>
	</defs>
	<clipPath id="SVGID_2_">
		<use xlink:href="#SVGID_1_" style="overflow:visible;"></use>
	</clipPath>
	<g class="st0">
		<g>
			<rect class="st1" width="1120" height="641"></rect>
			<defs>
				<filter id="Adobe_OpacityMaskFilter">
					<feColorMatrix type="matrix" values="1 0 0 0 0  0 1 0 0 0  0 0 1 0 0  0 0 0 1 0"></feColorMatrix>
				</filter>
			</defs>
			<mask maskUnits="userSpaceOnUse" id="mask0_1_">
				<rect class="st2" width="1120" height="641"></rect>
			</mask>
			<g class="st3">
			</g>
			<g>
				<defs>
					<rect id="SVGID_3_" x="-206.3" y="-426.6" width="1537.4" height="1281.1"></rect>
				</defs>
				<clipPath id="SVGID_4_">
					<use xlink:href="#SVGID_3_" style="overflow:visible;"></use>
				</clipPath>
				<g class="st4">
					<path class="st1" d="M1331.1-426.6H-206.3V854.5h1537.4V-426.6z"></path>
					<path class="st5" d="M-78.2-213.1L-206.3,0.4H49.9L-78.2-213.1z"></path>
					<path class="st6" d="M434.3-213.1L306.2,0.4h256.2L434.3-213.1z"></path>
					<path class="st7" d="M690.5-213.1L562.4,0.4h256.2L690.5-213.1z"></path>
					<path class="st5" d="M946.7-213.1L818.6,0.4h256.2L946.7-213.1z"></path>
					<path class="st6" d="M1202.9-213.1L1074.8,0.4h256.2L1202.9-213.1z"></path>
					<path class="st6" d="M-78.2,214l-128.1,213.5H49.9L-78.2,214z"></path>
					<path class="st7" d="M-78.2,214L49.9,0.4h-256.2L-78.2,214z"></path>
					<path class="st8" d="M178,214L49.9,427.5h256.2L178,214z"></path>
					<path class="st9" d="M178,214L306.2,0.4H49.9L178,214z"></path>
					<path class="st6" d="M434.3,214L306.2,427.5h256.2L434.3,214z"></path>
					<path class="st10" d="M434.3,214L562.4,0.4H306.2L434.3,214z"></path>
					<path class="st10" d="M690.5,214L562.4,427.5h256.2L690.5,214z"></path>
					<path class="st11" d="M690.5,214L818.6,0.4H562.4L690.5,214z"></path>
					<path class="st7" d="M946.7,214L818.6,427.5h256.2L946.7,214z"></path>
					<path class="st6" d="M946.7,214L1074.8,0.4H818.6L946.7,214z"></path>
					<path class="st9" d="M1202.9,214l-128.1,213.5h256.2L1202.9,214z"></path>
					<path class="st5" d="M1202.9,214L1331.1,0.4h-256.2L1202.9,214z"></path>
					<path class="st12" d="M-78.2,641l-128.1,213.5H49.9L-78.2,641z"></path>
					<path class="st7" d="M178,641L49.9,854.5h256.2L178,641z"></path>
					<path class="st6" d="M178,641l128.1-213.5H49.9L178,641z"></path>
					<path class="st7" d="M434.3,641l128.1-213.5H306.2L434.3,641z"></path>
					<path class="st7" d="M690.5,641L562.4,854.5h256.2L690.5,641z"></path>
					<path class="st5" d="M690.5,641l128.1-213.5H562.4L690.5,641z"></path>
					<path class="st9" d="M946.7,641L818.6,854.5h256.2L946.7,641z"></path>
					<path class="st8" d="M946.7,641l128.1-213.5H818.6L946.7,641z"></path>
					<path class="st10" d="M1202.9,641l-128.1,213.5h256.2L1202.9,641z"></path>
					<path class="st11" d="M49.9,0.4L-78.2,214H178L49.9,0.4z"></path>
					<path class="st8" d="M49.9,0.4L178-213.1H-78.2L49.9,0.4z"></path>
					<path class="st12" d="M306.2,0.4L178,214h256.2L306.2,0.4z"></path>
					<path class="st11" d="M306.2,0.4l128.1-213.5H178L306.2,0.4z"></path>
					<path class="st5" d="M562.4,0.4L434.3,214h256.2L562.4,0.4z"></path>
					<path class="st12" d="M562.4,0.4l128.1-213.5H434.3L562.4,0.4z"></path>
					<path class="st9" d="M818.6,0.4L690.5,214h256.2L818.6,0.4z"></path>
					<path class="st8" d="M818.6,0.4l128.1-213.5H690.5L818.6,0.4z"></path>
					<path class="st11" d="M1074.8,0.4L946.7,214h256.2L1074.8,0.4z"></path>
					<path class="st10" d="M1074.8,0.4l128.1-213.5H946.7L1074.8,0.4z"></path>
					<path class="st9" d="M49.9,427.5L-78.2,641H178L49.9,427.5z"></path>
					<path class="st5" d="M49.9,427.5L178,214H-78.2L49.9,427.5z"></path>
					<path class="st5" d="M306.2,427.5L178,641h256.2L306.2,427.5z"></path>
					<path class="st10" d="M306.2,427.5L434.3,214H178L306.2,427.5z"></path>
					<path class="st8" d="M562.4,427.5L690.5,214H434.3L562.4,427.5z"></path>
					<path class="st12" d="M818.6,427.5L690.5,641h256.2L818.6,427.5z"></path>
					<path class="st11" d="M1074.8,427.5L946.7,641h256.2L1074.8,427.5z"></path>
					<path class="st12" d="M1074.8,427.5L1202.9,214H946.7L1074.8,427.5z"></path>
					<path class="st5" d="M49.9,854.5L178,641H-78.2L49.9,854.5z"></path>
					<path class="st11" d="M306.2,854.5L434.3,641H178L306.2,854.5z"></path>
					<path class="st9" d="M562.4,854.5L690.5,641H434.3L562.4,854.5z"></path>
					<path class="st11" d="M818.6,854.5L946.7,641H690.5L818.6,854.5z"></path>
					<path class="st12" d="M1074.8,854.5L1202.9,641H946.7L1074.8,854.5z"></path>
				</g>
			</g>
		</g>
	</g>
	<rect class="st13" width="1120" height="641"></rect>
</g>
</svg>
